# xmcd
#
# Track frame offsets:
#	182
#	20307
#	40420
#	58157
#	77132
#	95815
#	113667
#	132232
#	151850
#	174257
#	195955
#
# Disc length: 2910 seconds
#
# Revision: 2
# Processed by: cddbd v1.5.2PL0 Copyright (c) Steve Scherf et al.
# Submitted via: EZCDAudioConverter 2.3.0.1
#
DISCID=840b5c0b
DTITLE=Anita Baker - Retrospective
DYEAR=1900
DGENRE=R&B
TTITLE0=Anita Baker - Sweet Love
TTITLE1=Anita Baker - You Bring Me Joy
TTITLE2=Anita Baker - Giving You The best That I Got
TTITLE3=Anita Baker - Caught Up In The Rapture
TTITLE4=Anita Baker - No One In The World
TTITLE5=Anita Baker - Talk To Me
TTITLE6=Anita Baker - Same Ole Love
TTITLE7=Anita Baker - Just Because
TTITLE8=Anita Baker - Mystery
TTITLE9=Anita Baker - Good Enough
TTITLE10=Anita Baker - Angel
EXTD=
EXTT0=
EXTT1=
EXTT2=
EXTT3=
EXTT4=
EXTT5=
EXTT6=
EXTT7=
EXTT8=
EXTT9=
EXTT10=
PLAYORDER=
